<svg id="Capa_1" enable-background="new 0 0 512 512" height="512" viewBox="0 0 512 512" width="512" xmlns="http://www.w3.org/2000/svg" xmlns:xlink="http://www.w3.org/1999/xlink"><linearGradient id="lg1"><stop offset="0" stop-color="#a93aff"/><stop offset="1" stop-color="#ff81ff"/></linearGradient><linearGradient id="SVGID_1_" gradientUnits="userSpaceOnUse" x1="256" x2="256" xlink:href="#lg1" y1="512" y2="240"/><linearGradient id="SVGID_2_" gradientUnits="userSpaceOnUse" x1="256" x2="256" y1="391" y2="120"><stop offset="0" stop-color="#ffbef9"/><stop offset="1" stop-color="#fff1ff"/></linearGradient><linearGradient id="SVGID_3_" gradientUnits="userSpaceOnUse" x1="256" x2="256" xlink:href="#lg1" y1="271" y2="0"/><g><path d="m256 512c-2.29 0-4.58-.524-6.686-1.572l-241-121c-5.085-2.533-8.304-7.722-8.314-13.403s3.192-10.881 8.27-13.43l241-121c4.234-2.126 9.227-2.126 13.461 0l241 121c5.077 2.549 8.279 7.749 8.27 13.43-.01 5.682-3.228 10.87-8.314 13.403l-241 121c-2.107 1.048-4.397 1.572-6.687 1.572z" fill="url(#SVGID_1_)"/><path d="m256 391c-2.29 0-4.58-.524-6.686-1.572l-241-120c-5.085-2.533-8.304-7.722-8.314-13.403-.01-5.682 3.192-10.881 8.27-13.43l241-121c4.234-2.126 9.227-2.126 13.461 0l241 121c5.077 2.549 8.279 7.749 8.27 13.43-.01 5.682-3.228 10.87-8.314 13.403l-241 120c-2.107 1.048-4.397 1.572-6.687 1.572z" fill="url(#SVGID_2_)"/><path d="m256 271c-2.29 0-4.58-.524-6.686-1.572l-241-120c-5.085-2.533-8.304-7.722-8.314-13.403s3.192-10.881 8.27-13.43l241-121c4.234-2.126 9.227-2.126 13.461 0l241 121c5.077 2.549 8.279 7.749 8.27 13.43-.01 5.682-3.228 10.87-8.314 13.403l-241 120c-2.107 1.048-4.397 1.572-6.687 1.572z" fill="url(#SVGID_3_)"/></g></svg>