<svg id="Layer_1" enable-background="new 0 0 512.392 512.392" height="512" viewBox="0 0 512.392 512.392" width="512" xmlns="http://www.w3.org/2000/svg"><g><path d="m81.326 211c0-95.627 70.276-174.84 162-188.811-9.456-1.441-19.141-2.188-29-2.188-105.486 0-191 85.514-191 191s85.514 191 191 191c9.859 0 19.544-.748 29-2.189-91.723-13.972-162-93.184-162-188.812z" fill="#cee1f2"/><path d="m211.196 422c-116.346 0-211-94.654-211-211s94.654-211 211-211 211 94.654 211 211-94.654 211-211 211zm0-382c-94.29 0-171 76.71-171 171s76.71 171 171 171 171-76.71 171-171-76.71-171-171-171z" fill="#1428bf"/><path d="m492.196 512.392c-5.118 0-10.237-1.952-14.143-5.857l-89.5-89.5c-7.81-7.811-7.81-20.475 0-28.285 7.811-7.811 20.475-7.811 28.285 0l89.5 89.5c7.81 7.811 7.81 20.475 0 28.285-3.905 3.904-9.024 5.857-14.142 5.857z" fill="#ff5cf0"/></g></svg>